<svg width="800" height="800" viewBox="0 0 64 64" xmlns="http://www.w3.org/2000/svg" aria-hidden="true" class="iconify iconify--emojione"><path d="M13.8 22.5C9.4 18.1 8 14.4 9.6 11.6c3.1-5.5 18-5.5 30.4-2.7l-.4 1.8C28 8.2 13.9 8.1 11.3 12.6c-1.4 2.5 1.3 6.1 3.9 8.7l-1.4 1.2" fill="#d3976e"/><path d="M41.2 11.3c-1 1-2 1.9-2.9 2.9-.9.9.5 2.2 1.3 1.3 1-1 2-1.9 2.9-2.9.9-.8-.4-2.2-1.3-1.3m5.6-2.8 2.9-2.9c.9-.9-.5-2.2-1.3-1.3l-2.9 2.9c-.9.8.4 2.1 1.3 1.3m-1.4 4.1c1 1 2 1.9 2.9 2.9.9.9 2.2-.5 1.3-1.3-1-1-2-1.9-2.9-2.9-.8-.9-2.2.5-1.3 1.3m-7.1-7 2.9 2.9c.9.9 2.2-.5 1.3-1.3l-2.9-2.9c-.8-.9-2.2.5-1.3 1.3" fill="#ffce31"/><path d="M43 14v2.9c0 1.2 1.9 1.2 1.9 0V14c0-1.2-1.9-1.2-1.9 0m0-11.1v2.8c0 1.2 1.9 1.2 1.9 0V2.9c0-1.2-1.9-1.2-1.9 0m5.2 7.9h2.9c1.2 0 1.2-1.9 0-1.9h-2.9c-1.2.1-1.2 1.9 0 1.9" fill="#ed4c5c"/><path d="m10.7 24.2 6-5.9 3.8 3.7c3.5-2.4 7.8-3.7 12.4-3.7C45.1 18.2 55 28 55 40.1 55 52.2 45.1 62 32.8 62c-12.2 0-22.2-9.8-22.2-21.9 0-4.5 1.4-8.7 3.8-12.2l-3.7-3.7" fill="#3e4347"/></svg>